<svg width="63" height="63" viewBox="0 0 63 63" fill="none" xmlns="http://www.w3.org/2000/svg">
<path fill-rule="evenodd" clip-rule="evenodd" d="M63 31.5C63 48.8959 48.8959 63 31.5 63C14.1041 63 0 48.8959 0 31.5C0 14.1041 14.1041 0 31.5 0C48.8959 0 63 14.1041 63 31.5ZM32.6287 23.2549C29.5654 24.528 23.4412 27.1661 14.259 31.1666C12.768 31.7599 11.9858 32.34 11.9149 32.907C11.7941 33.8678 12.9964 34.2458 14.6291 34.7576C14.8523 34.8285 15.0833 34.8994 15.3195 34.9781C16.9286 35.5005 19.0916 36.1121 20.2151 36.1357C21.2362 36.1567 22.3755 35.7368 23.6329 34.8758C32.2114 29.0824 36.6398 26.1555 36.918 26.0925C37.1149 26.0479 37.3879 25.9901 37.5716 26.1555C37.7554 26.3182 37.737 26.628 37.7186 26.712C37.5979 27.2186 32.8886 31.5998 30.4474 33.8678C29.6861 34.5739 29.148 35.0752 29.0378 35.1908C28.791 35.4454 28.539 35.6895 28.2975 35.9231C26.8012 37.3616 25.683 38.4431 28.3605 40.2071C29.6467 41.055 30.6757 41.7559 31.7021 42.4541C32.823 43.218 33.9412 43.9792 35.3903 44.9295C35.7578 45.171 36.1095 45.4204 36.4534 45.6645C37.758 46.5964 38.9314 47.4311 40.3804 47.2999C41.2204 47.2211 42.0919 46.431 42.5329 44.0711C43.575 38.4904 45.6278 26.4049 46.1029 21.4226C46.1318 21.009 46.1142 20.5934 46.0504 20.1836C46.0122 19.8527 45.851 19.5482 45.5989 19.3305C45.2235 19.0234 44.6408 18.9578 44.3783 18.963C43.1944 18.984 41.3779 19.6166 32.6287 23.2549Z" fill="#241400"/>
</svg>
