<svg width="49" height="49" viewBox="0 0 49 49" fill="none" xmlns="http://www.w3.org/2000/svg">
<path d="M47.9859 14.8006C47.9595 12.8125 47.5873 10.8441 46.8861 8.98358C46.278 7.41422 45.3492 5.98897 44.1591 4.79888C42.969 3.60879 41.5438 2.68003 39.9744 2.07195C38.1378 1.38251 36.1975 1.00972 34.2362 0.969448C31.7109 0.856573 30.9103 0.825073 24.5001 0.825073C18.0898 0.825073 17.2682 0.825073 14.7613 0.969448C12.8009 1.01002 10.8615 1.3828 9.02569 2.07195C7.45609 2.67961 6.03062 3.60822 4.84047 4.79836C3.65033 5.9885 2.72172 7.41398 2.11406 8.98358C1.42324 10.8188 1.05126 12.7586 1.01419 14.7192C0.901312 17.2471 0.867188 18.0477 0.867188 24.458C0.867188 30.8682 0.867187 31.6872 1.01419 34.1967C1.05356 36.1602 1.42369 38.0975 2.11406 39.9376C2.72274 41.5067 3.65204 42.9316 4.84258 44.1212C6.03312 45.3109 7.45873 46.2391 9.02831 46.8466C10.8591 47.5637 12.7988 47.9632 14.7639 48.0278C17.2918 48.1407 18.0924 48.1748 24.5027 48.1748C30.9129 48.1748 31.7346 48.1748 34.2414 48.0278C36.2027 47.9892 38.1431 47.6173 39.9797 46.928C41.5486 46.3192 42.9735 45.3902 44.1635 44.2002C45.3535 43.0102 46.2825 41.5853 46.8913 40.0163C47.5817 38.1788 47.9518 36.2416 47.9912 34.2755C48.1041 31.7502 48.1382 30.9496 48.1382 24.5367C48.1329 18.1265 48.1329 17.3127 47.9859 14.8006ZM24.4843 36.5802C17.7801 36.5802 12.3489 31.1491 12.3489 24.4448C12.3489 17.7406 17.7801 12.3095 24.4843 12.3095C27.7028 12.3095 30.7895 13.588 33.0653 15.8638C35.3411 18.1396 36.6197 21.2263 36.6197 24.4448C36.6197 27.6633 35.3411 30.75 33.0653 33.0258C30.7895 35.3017 27.7028 36.5802 24.4843 36.5802ZM37.1027 14.6903C35.5356 14.6903 34.2729 13.4251 34.2729 11.8606C34.2729 11.4891 34.3461 11.1213 34.4882 10.7782C34.6304 10.435 34.8387 10.1232 35.1014 9.86057C35.364 9.59792 35.6758 9.38958 36.019 9.24744C36.3621 9.1053 36.7299 9.03214 37.1014 9.03214C37.4728 9.03214 37.8406 9.1053 38.1838 9.24744C38.5269 9.38958 38.8387 9.59792 39.1014 9.86057C39.364 10.1232 39.5724 10.435 39.7145 10.7782C39.8567 11.1213 39.9298 11.4891 39.9298 11.8606C39.9298 13.4251 38.6646 14.6903 37.1027 14.6903Z" fill="#241400"/>
</svg>
